<?xml version="1.0" encoding="UTF-8"?>
<!DOCTYPE svg PUBLIC "-//W3C//DTD SVG 1.1//EN" "http://www.w3.org/Graphics/SVG/1.1/DTD/svg11.dtd">
<svg xmlns="http://www.w3.org/2000/svg" version="1.1" width="512px" height="512px" style="shape-rendering:geometricPrecision; text-rendering:geometricPrecision; image-rendering:optimizeQuality; fill-rule:evenodd; clip-rule:evenodd" xmlns:xlink="http://www.w3.org/1999/xlink">
<g><path style="opacity:0.971" fill="#0e69db" d="M 249.5,107.5 C 261.925,105.291 270.425,109.958 275,121.5C 275.903,122.701 277.069,123.535 278.5,124C 290.929,124.039 303.262,124.706 315.5,126C 317.487,127.319 318.654,129.152 319,131.5C 319.915,137.944 319.581,144.277 318,150.5C 277.238,151.663 236.404,151.83 195.5,151C 195,150.5 194.5,150 194,149.5C 193.333,142.833 193.333,136.167 194,129.5C 195.167,128.333 196.333,127.167 197.5,126C 209.404,124.707 221.404,124.04 233.5,124C 237.302,121.913 239.802,118.746 241,114.5C 243.441,111.546 246.275,109.213 249.5,107.5 Z M 253.5,114.5 C 262.365,114.847 265.532,119.181 263,127.5C 255.925,133.232 250.758,131.732 247.5,123C 248.187,119.16 250.187,116.327 253.5,114.5 Z"/></g>
<g><path style="opacity:0.986" fill="#0e69db" d="M 163.5,133.5 C 170.422,133.188 177.256,133.521 184,134.5C 185.267,142.062 185.934,149.729 186,157.5C 186.5,158 187,158.5 187.5,159C 233.5,159.667 279.5,159.667 325.5,159C 326.126,158.25 326.626,157.416 327,156.5C 327.333,149.5 327.667,142.5 328,135.5C 328.5,135 329,134.5 329.5,134C 336.167,133.333 342.833,133.333 349.5,134C 350.931,134.465 352.097,135.299 353,136.5C 354.661,221.752 354.994,307.085 354,392.5C 353.535,393.931 352.701,395.097 351.5,396C 288.891,397.656 226.224,397.989 163.5,397C 161.714,396.215 160.214,395.049 159,393.5C 157.339,308.915 157.006,224.248 158,139.5C 159.36,136.977 161.193,134.977 163.5,133.5 Z M 193.5,195.5 C 235.501,195.333 277.501,195.5 319.5,196C 329.172,200.32 329.839,205.654 321.5,212C 278.167,212.667 234.833,212.667 191.5,212C 185.545,209.427 184.045,205.261 187,199.5C 189.013,197.752 191.18,196.418 193.5,195.5 Z M 192.5,239.5 C 235.168,239.333 277.835,239.5 320.5,240C 327.048,242.912 328.548,247.412 325,253.5C 323.829,254.893 322.329,255.727 320.5,256C 277.5,256.667 234.5,256.667 191.5,256C 185.878,253.265 184.378,249.099 187,243.5C 188.5,241.531 190.333,240.198 192.5,239.5 Z M 191.5,283.5 C 234.501,283.333 277.501,283.5 320.5,284C 329.833,289.333 329.833,294.667 320.5,300C 277.833,300.667 235.167,300.667 192.5,300C 183.554,295.084 183.221,289.584 191.5,283.5 Z M 191.5,327.5 C 234.835,327.333 278.168,327.5 321.5,328C 327.386,331.319 328.553,335.819 325,341.5C 323.352,342.717 321.519,343.55 319.5,344C 277.5,344.667 235.5,344.667 193.5,344C 187.121,342.749 184.621,338.916 186,332.5C 187.73,330.598 189.563,328.931 191.5,327.5 Z"/></g>
<g><path style="opacity:0.96" fill="#0e69db" d="M 5.5,194.5 C 29.169,194.333 52.8357,194.5 76.5,195C 110.763,198.601 131.93,217.101 140,250.5C 140.5,282.165 140.667,313.832 140.5,345.5C 119.701,342.615 110.367,330.615 112.5,309.5C 101.162,309.667 89.8284,309.5 78.5,309C 66.1737,304.501 59.8404,295.668 59.5,282.5C 77.1667,282.5 94.8333,282.5 112.5,282.5C 112.5,277.167 112.5,271.833 112.5,266.5C 92.5423,266.454 72.7089,266.454 53,266.5C 40.0455,261.617 33.2122,252.283 32.5,238.5C 56.5093,238.833 80.5093,238.5 104.5,237.5C 98.2932,229.888 90.2932,225.055 80.5,223C 63.1667,222.667 45.8333,222.333 28.5,222C 14.1187,218.452 6.45198,209.285 5.5,194.5 Z"/></g>
<g><path style="opacity:0.963" fill="#0e69db" d="M 435.5,194.5 C 459.167,194.5 482.833,194.5 506.5,194.5C 506.354,207.289 500.354,216.122 488.5,221C 469.543,222.269 450.543,222.935 431.5,223C 421.707,225.126 413.707,230.126 407.5,238C 431.498,238.5 455.498,238.667 479.5,238.5C 479.191,254.312 471.191,263.479 455.5,266C 436.836,266.5 418.17,266.667 399.5,266.5C 399.5,271.833 399.5,277.167 399.5,282.5C 417.5,282.5 435.5,282.5 453.5,282.5C 453.122,296.048 446.456,304.882 433.5,309C 422.172,309.5 410.838,309.667 399.5,309.5C 402.046,329.779 393.379,341.779 373.5,345.5C 372.333,313.172 372.167,280.838 373,248.5C 381.552,216.159 402.385,198.159 435.5,194.5 Z"/></g>
</svg>
