<?xml version="1.0" encoding="utf-8"?>
<!-- Generator: Adobe Illustrator 28.2.0, SVG Export Plug-In . SVG Version: 6.00 Build 0)  -->
<svg version="1.1" id="Ebene_1" xmlns="http://www.w3.org/2000/svg" xmlns:xlink="http://www.w3.org/1999/xlink" x="0px" y="0px"
	 viewBox="0 0 502 80" style="enable-background:new 0 0 502 80;" xml:space="preserve">
<style type="text/css">
	.st0{fill:#ffffff;}
	.st1{fill:#ffffff;}
</style>
<g>
	<path class="st0" d="M68.6,2.6c0.5,0,0.9,0.1,1.3,0.4c0.4,0.3,0.7,0.6,0.9,1.1C71,4.5,71.1,5,71,5.5s-0.3,0.9-0.7,1.2
		C70,7,69.5,7.2,69.1,7.3c-0.5,0.1-1,0-1.4-0.1c-0.4-0.2-0.8-0.5-1.1-0.9c-0.3-0.4-0.4-0.8-0.4-1.3c0-0.6,0.3-1.2,0.7-1.7
		C67.3,2.9,68,2.6,68.6,2.6z M52.9,12.7h31.4c0.3,0,0.6-0.1,0.9-0.3c0.2-0.2,0.4-0.5,0.4-0.8V8c0-0.6-0.3-1.2-0.7-1.7
		c-0.5-0.4-1.1-0.7-1.7-0.7h-7.7c-0.5,0-1-0.2-1.4-0.4c-0.4-0.3-0.7-0.7-0.9-1.2c-0.3-0.9-1-1.7-1.8-2.3c-0.8-0.6-1.8-0.9-2.8-0.9
		s-2,0.3-2.8,0.9C65,2.3,64.4,3.1,64.1,4c-0.2,0.5-0.5,0.9-0.9,1.2c-0.4,0.3-0.9,0.4-1.4,0.4h-7.6c-0.6,0-1.3,0.3-1.7,0.7
		c-0.5,0.4-0.7,1-0.7,1.7v3.6c0,0.3,0.1,0.6,0.4,0.8C52.3,12.6,52.6,12.7,52.9,12.7z"/>
	<path class="st0" d="M85.5,29.4H51.7c-0.6,0-1.3-0.3-1.7-0.7c-0.5-0.4-0.7-1-0.7-1.7c0-0.6,0.3-1.2,0.7-1.7
		c0.5-0.4,1.1-0.7,1.7-0.7h33.8c0.6,0,1.3,0.3,1.7,0.7c0.5,0.4,0.7,1,0.7,1.7c0,0.6-0.3,1.2-0.7,1.7C86.8,29.1,86.2,29.4,85.5,29.4z
		 M85.5,41.2H51.7c-0.6,0-1.3-0.3-1.7-0.7c-0.5-0.4-0.7-1-0.7-1.7s0.3-1.2,0.7-1.7c0.5-0.4,1.1-0.7,1.7-0.7h33.8
		c0.6,0,1.3,0.3,1.7,0.7c0.5,0.4,0.7,1,0.7,1.7s-0.3,1.2-0.7,1.7C86.8,41,86.2,41.2,85.5,41.2z M88,50.7c0,0.6-0.3,1.2-0.7,1.7
		c-0.5,0.4-1.1,0.7-1.7,0.7H51.7c-0.6,0-1.3-0.3-1.7-0.7c-0.5-0.4-0.7-1-0.7-1.7s0.3-1.2,0.7-1.7c0.5-0.4,1.1-0.7,1.7-0.7h33.8
		c0.6,0,1.3,0.3,1.7,0.7C87.7,49.5,88,50.1,88,50.7z M88,62.6c0,0.6-0.3,1.2-0.7,1.7c-0.5,0.4-1.1,0.7-1.7,0.7H51.7
		c-0.6,0-1.3-0.3-1.7-0.7c-0.5-0.4-0.7-1-0.7-1.7c0-0.6,0.3-1.2,0.7-1.7c0.5-0.4,1.1-0.7,1.7-0.7h33.8c0.6,0,1.3,0.3,1.7,0.7
		C87.7,61.4,88,62,88,62.6z M92.8,8h-3.6c-0.3,0-0.6,0.1-0.9,0.3C88.1,8.5,88,8.8,88,9.1v4.7c0,0.3-0.1,0.6-0.4,0.8
		c-0.2,0.2-0.5,0.3-0.9,0.3H50.5c-0.3,0-0.6-0.1-0.9-0.3c-0.2-0.2-0.4-0.5-0.4-0.8V9.1c0-0.3-0.1-0.6-0.4-0.8
		C48.7,8.1,48.4,8,48.1,8h-3.6c-0.6,0-1.3,0.3-1.7,0.7c-0.5,0.4-0.7,1-0.7,1.7v66.5c0,0.6,0.3,1.2,0.7,1.7c0.5,0.4,1.1,0.7,1.7,0.7
		h48.3c0.6,0,1.3-0.3,1.7-0.7c0.5-0.4,0.7-1,0.7-1.7V10.3c0-0.6-0.3-1.2-0.7-1.7C94,8.2,93.4,8,92.8,8z"/>
	<path class="st0" d="M118.2,24.6c-2.8,0-5.6,0.6-8.1,1.9c-2.5,1.2-4.7,3-6.4,5.2l-0.2,0.3l-0.1,0.2c-0.2,0.3-0.5,0.7-0.7,1
		c0,0.1-0.1,0.2-0.1,0.2c-0.1,0.2-0.2,0.4-0.4,0.6l-0.1,0.3l-0.1,0.2l-0.1,0.2c-0.1,0.1-0.1,0.3-0.2,0.4c0,0.1-0.1,0.2-0.1,0.3
		l-0.1,0.3c0,0,0,0.1,0,0.1c0,0.1-0.1,0.2-0.1,0.3l-0.1,0.3c0,0.1-0.1,0.2-0.1,0.3c0,0,0,0,0,0l-0.1,0.3l0,0.1
		c0,0.1-0.1,0.2-0.1,0.3c0,0,0,0,0,0c0,0.1-0.1,0.2-0.1,0.3c0,0,0,0.1,0,0.1c0,0.1,0,0.2-0.1,0.3l0,0.1c0,0.1,0,0.2-0.1,0.3v0
		l-0.1,0.3l0,0.1c0,0.1,0,0.2-0.1,0.3v0.1c0,0.1,0,0.2-0.1,0.3v0.1c0,0.1,0,0.2,0,0.3v0.1c0,0.1,0,0.2,0,0.3c0,0.1,0,0.3,0,0.4v0
		c0,0.2,0,0.5,0,0.7c0,0.1,0,0.1,0,0.1c0,0.2,0,0.5,0,0.7v5.9v7.1V65c1.9,0,3.8-0.8,5.1-2.1c1.4-1.3,2.1-3.1,2.1-5v-2.4h7.2
		c1.9,0,3.8-0.8,5.1-2.1s2.1-3.1,2.1-5h-14.6v-4.7h14.5c1.9,0,3.8-0.8,5.1-2.1c1.4-1.3,2.1-3.1,2.1-5h-19.9c1-1.5,2.3-2.7,3.9-3.5
		c1.6-0.8,3.3-1.3,5.1-1.3H129c1.9,0,3.8-0.8,5.1-2.1c1.4-1.3,2.1-3.1,2.1-5L118.2,24.6L118.2,24.6z"/>
	<path class="st0" d="M37.2,43.6v-1.2c0-0.2,0-0.5,0-0.7c0-0.1,0-0.1,0-0.1c0-0.2,0-0.5,0-0.7v0c0-0.1,0-0.3,0-0.4
		c0-0.1,0-0.2,0-0.3v-0.1c0-0.1,0-0.2,0-0.3v-0.1c0-0.1,0-0.2-0.1-0.3v-0.1c0-0.1,0-0.2-0.1-0.3l0-0.1l-0.1-0.3v0
		c0-0.1,0-0.2-0.1-0.3l0-0.1c0-0.1,0-0.2-0.1-0.3c0,0,0-0.1,0-0.1c0-0.1-0.1-0.2-0.1-0.3c0,0,0,0,0,0c0-0.1-0.1-0.2-0.1-0.3l0-0.1
		l-0.1-0.3c0,0,0,0,0,0c0-0.1-0.1-0.2-0.1-0.3l-0.1-0.3c0-0.1-0.1-0.2-0.1-0.3c0,0,0-0.1,0-0.1l-0.1-0.3c0-0.1-0.1-0.2-0.1-0.3
		c-0.1-0.1-0.1-0.3-0.2-0.4l-0.2-0.2l-0.1-0.2l-0.1-0.3c-0.1-0.2-0.2-0.4-0.4-0.6c0-0.1-0.1-0.2-0.1-0.2c-0.2-0.4-0.4-0.7-0.7-1
		L33.8,32l-0.2-0.3c-1.7-2.2-3.9-4-6.4-5.2c-2.5-1.2-5.3-1.9-8.1-1.9H1c0,1.9,0.8,3.7,2.1,5s3.2,2.1,5.1,2.1h10.9
		c1.8,0,3.5,0.4,5.1,1.3c1.6,0.8,2.9,2,3.9,3.5H8.2c0,1.9,0.8,3.7,2.1,5c1.4,1.3,3.2,2.1,5.1,2.1H30v4.7H15.5c0,1.9,0.8,3.7,2.1,5
		c1.4,1.3,3.2,2.1,5.1,2.1H30v2.4c0,1.9,0.8,3.7,2.1,5c1.4,1.3,3.2,2.1,5.1,2.1v-9.5v-7.1V43.6z"/>
	<path class="st1" d="M221,46.4h-17l0-0.2c0.1-0.6,0.2-1.1,0.4-1.6c0.4-1.2,1.1-2.3,2-3.2c0.8-0.8,1.8-1.4,2.9-1.8
		c1.1-0.4,2.2-0.6,3.4-0.5c1.3,0,2.6,0.3,3.8,0.8c1.2,0.5,2.3,1.4,3.1,2.4c0.8,1,1.3,2.3,1.4,3.6V46.4z M225.7,42.8
		c-1.5-3.4-4.2-6.1-7.6-7.6c-1.7-0.7-3.5-1.1-5.3-1.1c-2.4,0-4.8,0.7-6.9,1.9c-2.2,1.3-4.1,3.2-5.3,5.4c-1.4,2.3-2,5.2-2,8.5
		c0,2.7,0.6,5.4,1.9,7.8c1.3,2.2,3.1,4.1,5.4,5.3c2.3,1.3,5.1,1.9,8.3,1.9c2,0,3.9-0.4,5.7-1.1c1.6-0.6,3-1.5,4.3-2.6
		c0.8-0.7,1.2-1.4,1.2-2.2c0-0.3-0.1-0.6-0.2-0.9c-0.1-0.3-0.3-0.5-0.5-0.7c-0.2-0.2-0.5-0.4-0.7-0.5c-0.3-0.1-0.6-0.2-0.9-0.2
		c-0.6,0-1.2,0.2-1.7,0.5c-0.4,0.4-1,0.8-1.6,1.2c-0.7,0.5-1.5,0.8-2.4,1.1c-1.2,0.3-2.4,0.5-3.6,0.4c-1.8,0-3.5-0.4-5.1-1.3
		c-1.5-0.9-2.8-2.1-3.7-3.7c-0.7-1.2-1.1-2.5-1.3-3.9l0-0.2h20.3c0.7,0,1.4-0.2,1.9-0.7c0.3-0.2,0.5-0.5,0.6-0.8
		c0.2-0.3,0.2-0.6,0.2-1C226.9,46.5,226.5,44.6,225.7,42.8z"/>
	<path class="st1" d="M271.7,63.6c0.5,0.5,1.2,0.8,2,0.8c0.7,0,1.4-0.3,2-0.8c0.3-0.3,0.5-0.6,0.6-0.9s0.2-0.7,0.2-1.1v-15
		c0-2.1-0.3-4.2-0.9-6.2c-0.5-1.7-1.6-3.3-3-4.4c-1.4-1.1-3.5-1.6-6.1-1.6c-1.6,0-3.1,0.3-4.5,1c-1.4,0.6-2.6,1.4-3.6,2.5
		c-0.8,0.8-1.6,1.7-2.1,2.7l-0.2,0.3l-0.1-0.3c-0.5-1.6-1.4-3-2.6-4.1c-1.5-1.3-3.7-2-6.5-2c-1.3,0-2.5,0.2-3.7,0.7
		c-1.1,0.4-2.2,1-3.1,1.7c-0.9,0.7-1.7,1.5-2.3,2.4c0,0.1-0.1,0.1-0.1,0.2c0,0.1-0.1,0.1-0.1,0.2l-0.3,0.4v-2.3
		c0-0.4-0.1-0.7-0.2-1.1c-0.1-0.3-0.3-0.6-0.6-0.9c-0.3-0.3-0.6-0.5-0.9-0.6c-0.3-0.1-0.7-0.2-1.1-0.2c-0.4,0-0.7,0.1-1.1,0.2
		c-0.3,0.1-0.6,0.3-0.9,0.6c-0.3,0.3-0.5,0.6-0.6,0.9c-0.1,0.3-0.2,0.7-0.2,1.1v24.1c0,0.4,0.1,0.7,0.2,1.1c0.1,0.3,0.3,0.6,0.6,0.9
		c0.5,0.5,1.2,0.8,2,0.8c0.7,0,1.4-0.3,2-0.8c0.3-0.3,0.5-0.6,0.6-0.9c0.1-0.3,0.2-0.7,0.2-1.1V46.6c0-1.3,0.3-2.6,1-3.7
		c0.7-1.1,1.6-2,2.8-2.7c1.2-0.7,2.7-1,4.1-1c1.6,0,2.9,0.3,3.8,1c0.9,0.7,1.6,1.6,1.9,2.7c0.4,1.2,0.6,2.4,0.6,3.7v15.1
		c0,0.4,0.1,0.7,0.2,1.1s0.3,0.6,0.6,0.9c0.5,0.5,1.2,0.8,2,0.8c0.7,0,1.4-0.3,2-0.8c0.3-0.3,0.5-0.6,0.6-0.9s0.2-0.7,0.2-1.1v-15
		c0-1.3,0.3-2.6,1-3.7c0.7-1.1,1.6-2.1,2.8-2.7c1.3-0.7,2.7-1,4.1-1c1.6,0,2.9,0.3,3.8,1c0.9,0.7,1.6,1.6,2,2.7
		c0.4,1.2,0.6,2.4,0.6,3.7v15c0,0.4,0.1,0.7,0.2,1.1C271.3,63,271.5,63.3,271.7,63.6z"/>
	<path class="st1" d="M305.1,55c-0.8,1.5-2,2.8-3.5,3.7c-1.5,0.9-3.2,1.3-4.9,1.3c-1.7,0-3.5-0.4-5-1.3c-1.5-0.9-2.7-2.2-3.5-3.7
		c-0.9-1.7-1.3-3.6-1.3-5.5c0-1.9,0.4-3.8,1.3-5.5c0.8-1.5,2-2.8,3.5-3.7c1.5-0.9,3.2-1.4,5-1.4c1.7,0,3.4,0.5,4.9,1.4
		c1.5,0.9,2.7,2.2,3.5,3.7c0.9,1.7,1.3,3.6,1.3,5.5C306.4,51.4,306,53.3,305.1,55L305.1,55z M304.5,36.1c-1.7-1-3.7-1.7-5.7-1.9
		c-2-0.3-4-0.2-6,0.4c-2,0.5-3.8,1.4-5.4,2.6c-1.6,1.2-2.9,2.7-4,4.4c-1.4,2.3-2,5-2,8c0,3,0.7,5.7,2,8c1.3,2.3,3.2,4.1,5.5,5.4
		c2.4,1.3,5,2,7.8,2c2.7,0,5.4-0.7,7.8-2c2.3-1.3,4.2-3.2,5.5-5.4c1.3-2.3,2-5,2-8c0-3-0.7-5.7-2-8
		C308.6,39.3,306.7,37.4,304.5,36.1z"/>
	<path class="st1" d="M382.2,46.4h-17l0-0.2c0.1-0.6,0.2-1.1,0.4-1.6c0.4-1.2,1.1-2.3,2-3.2c0.8-0.8,1.8-1.4,2.9-1.8
		c1.1-0.4,2.2-0.6,3.4-0.5c1.3,0,2.6,0.3,3.8,0.8c1.2,0.5,2.3,1.4,3.1,2.4c0.8,1,1.3,2.3,1.4,3.6L382.2,46.4z M386.9,42.8
		c-1.5-3.4-4.2-6.1-7.6-7.6c-1.7-0.7-3.5-1.1-5.3-1.1c-2.4,0-4.8,0.7-6.9,1.9c-2.2,1.3-4.1,3.2-5.3,5.4c-1.4,2.3-2,5.2-2,8.5
		c0,2.7,0.6,5.4,1.9,7.8c1.3,2.2,3.1,4.1,5.4,5.3c2.3,1.3,5.1,1.9,8.3,1.9c2,0,3.9-0.4,5.7-1.1c1.6-0.6,3-1.5,4.3-2.6
		c0.8-0.7,1.2-1.4,1.2-2.2c0-0.3-0.1-0.6-0.2-0.9c-0.1-0.3-0.3-0.5-0.5-0.7c-0.2-0.2-0.5-0.4-0.7-0.5c-0.3-0.1-0.6-0.2-0.9-0.2
		c-0.6,0-1.2,0.2-1.7,0.5c-0.4,0.4-1,0.8-1.6,1.2c-0.7,0.5-1.5,0.8-2.4,1.1c-1.2,0.3-2.4,0.5-3.6,0.4c-1.8,0-3.5-0.4-5.1-1.3
		c-1.5-0.9-2.8-2.1-3.7-3.7c-0.7-1.2-1.1-2.5-1.3-3.9l0-0.2h20.3c0.7,0,1.4-0.2,1.9-0.7c0.3-0.2,0.5-0.5,0.6-0.8
		c0.2-0.3,0.2-0.6,0.2-1C388.1,46.5,387.7,44.6,386.9,42.8z"/>
	<path class="st1" d="M395.6,34.5c-0.4,0-0.7,0.1-1.1,0.2c-0.3,0.1-0.6,0.3-0.9,0.6c-0.3,0.3-0.5,0.6-0.6,0.9
		c-0.1,0.3-0.2,0.7-0.2,1.1v24.3c0,0.4,0.1,0.7,0.2,1.1c0.1,0.3,0.3,0.6,0.6,0.9c0.5,0.5,1.2,0.8,2,0.8s1.4-0.3,2-0.8
		c0.3-0.3,0.5-0.6,0.6-0.9c0.1-0.3,0.2-0.7,0.2-1.1V37.3c0-0.4-0.1-0.7-0.2-1.1c-0.1-0.3-0.3-0.6-0.6-0.9c-0.3-0.3-0.6-0.5-0.9-0.6
		C396.4,34.6,396,34.5,395.6,34.5z"/>
	<path class="st1" d="M403,59.8c1.4,1.8,3.3,3.2,5.5,4c2.1,0.8,4.3,1.1,6.5,1.2c1.8,0,3.6-0.3,5.3-1c1.6-0.6,3-1.6,4.1-2.9
		c1.1-1.3,1.7-3,1.6-4.6c0-1.6-0.3-2.9-0.9-3.9c-0.6-1-1.3-1.8-2.3-2.5c-1-0.7-2-1.2-3.2-1.6c-1.2-0.4-2.4-0.8-3.6-1.1
		c-1.2-0.3-2.3-0.6-3.4-1c-0.9-0.3-1.8-0.8-2.6-1.4c-0.3-0.3-0.6-0.7-0.8-1.1c-0.2-0.4-0.3-0.9-0.2-1.3c0-1.1,0.3-1.9,0.9-2.4
		c0.6-0.6,1.3-1,2.1-1.1c0.8-0.2,1.5-0.3,2.3-0.3c1.4,0,2.7,0.2,4,0.8c1.1,0.5,2.1,1.2,2.9,2.2c0.4,0.4,1,0.6,1.5,0.6
		c0.6,0,1.1-0.1,1.6-0.5c0.7-0.5,1-1.1,0.9-1.7c0-0.6-0.3-1.2-0.6-1.7c-0.8-1-1.8-1.8-3-2.3c-1.1-0.6-2.3-1-3.6-1.3
		c-1.1-0.3-2.3-0.4-3.5-0.4c-1.8,0-3.6,0.3-5.3,1.1c-1.5,0.7-2.9,1.7-3.9,3c-1,1.3-1.5,2.9-1.5,4.5c0,1.3,0.3,2.7,0.9,3.9
		c0.6,1,1.4,1.9,2.4,2.5c1,0.7,2.2,1.2,3.4,1.6c1.2,0.4,2.5,0.8,3.7,1.1c1.2,0.3,2.3,0.6,3.3,1c0.9,0.3,1.8,0.8,2.5,1.4
		c0.3,0.3,0.6,0.7,0.7,1.1c0.2,0.4,0.2,0.8,0.2,1.3c0,1.1-0.3,1.9-0.9,2.5c-0.6,0.6-1.3,1-2.2,1.2c-0.8,0.2-1.6,0.3-2.4,0.4
		c-1.7,0-3.4-0.3-4.9-1c-1.4-0.7-2.6-1.7-3.7-2.8c-0.4-0.5-1-0.7-1.6-0.8c-0.1,0-0.2,0-0.2,0c-0.5,0-1,0.1-1.4,0.4
		c-0.7,0.5-1.1,1-1.2,1.7C402.5,58.6,402.6,59.2,403,59.8z"/>
	<path class="st1" d="M447,61.4c0-0.6-0.2-1.2-0.5-1.6c-0.1-0.2-0.3-0.3-0.5-0.4c-0.2-0.1-0.4-0.2-0.6-0.2c-0.4,0-0.8,0.1-1.1,0.2
		c-0.8,0.3-1.7,0.3-2.5,0c-0.4-0.2-0.8-0.5-1-0.9c-0.3-0.5-0.4-1.1-0.4-1.7V40h4.8c0.3,0,0.7,0,1-0.2c0.3-0.1,0.6-0.3,0.8-0.5
		c0.2-0.2,0.4-0.5,0.6-0.8c0.1-0.3,0.2-0.6,0.2-0.9c0-0.3-0.1-0.7-0.2-1c-0.1-0.3-0.3-0.6-0.6-0.8c-0.2-0.2-0.5-0.4-0.8-0.5
		c-0.3-0.1-0.7-0.2-1-0.2h-4.8v-4.6c0-0.4-0.1-0.7-0.2-1.1c-0.1-0.3-0.3-0.6-0.6-0.9c-0.5-0.5-1.2-0.8-2-0.8s-1.4,0.3-2,0.8
		c-0.3,0.3-0.5,0.6-0.6,0.9c-0.1,0.3-0.2,0.7-0.2,1.1v4.6h-3.3c-0.3,0-0.7,0-1,0.2c-0.3,0.1-0.6,0.3-0.8,0.5
		c-0.5,0.5-0.7,1.1-0.7,1.8c0,0.7,0.3,1.3,0.7,1.8c0.2,0.2,0.5,0.4,0.8,0.5s0.7,0.2,1,0.2h3.3v17c0,1.8,0.3,3.2,0.8,4.2
		c0.4,0.9,1.1,1.6,2,2.1c0.8,0.4,1.6,0.7,2.5,0.8c0.8,0.1,1.5,0.2,2.3,0.2c1.1,0,2.2-0.3,3.2-0.8C446.5,63,447,62.3,447,61.4z"/>
	<path class="st1" d="M472.1,46.4h-17l0-0.2c0.1-0.6,0.2-1.1,0.4-1.6c0.4-1.2,1.1-2.3,2-3.2c0.8-0.8,1.8-1.4,2.9-1.8
		c1.1-0.4,2.2-0.6,3.4-0.5c1.3,0,2.6,0.3,3.8,0.8c1.2,0.5,2.3,1.4,3.1,2.4c0.8,1,1.3,2.3,1.4,3.6V46.4z M476.8,42.8
		c-1.5-3.4-4.2-6.1-7.6-7.6c-1.7-0.7-3.5-1.1-5.3-1.1c-2.4,0-4.8,0.7-6.9,1.9c-2.2,1.3-4.1,3.2-5.3,5.4c-1.4,2.3-2,5.2-2,8.5
		c0,2.7,0.6,5.4,1.9,7.8c1.3,2.2,3.1,4.1,5.4,5.3c2.3,1.3,5.1,1.9,8.3,1.9c2,0,3.9-0.4,5.7-1.1c1.6-0.6,3-1.5,4.3-2.6
		c0.8-0.7,1.2-1.4,1.2-2.2c0-0.3-0.1-0.6-0.2-0.9c-0.1-0.3-0.3-0.5-0.5-0.7c-0.2-0.2-0.5-0.4-0.7-0.5c-0.3-0.1-0.6-0.2-0.9-0.2
		c-0.6,0-1.2,0.2-1.7,0.5c-0.4,0.4-1,0.8-1.6,1.2c-0.7,0.5-1.5,0.8-2.4,1.1c-1.2,0.3-2.4,0.5-3.6,0.4c-1.8,0-3.5-0.4-5.1-1.3
		c-1.5-0.9-2.8-2.1-3.7-3.7c-0.7-1.2-1.1-2.5-1.3-3.9l0-0.2h20.3c0.7,0,1.4-0.2,1.9-0.7c0.3-0.2,0.5-0.5,0.6-0.8
		c0.2-0.3,0.2-0.6,0.2-1C478,46.5,477.6,44.6,476.8,42.8z"/>
	<path class="st1" d="M486.9,35.5c-0.3-0.3-0.6-0.5-0.9-0.6c-0.3-0.1-0.7-0.2-1.1-0.2c-0.4,0-0.7,0.1-1.1,0.2
		c-0.3,0.1-0.6,0.3-0.9,0.6c-0.3,0.3-0.5,0.6-0.6,0.9c-0.1,0.3-0.2,0.7-0.2,1.1v24.1c0,0.4,0.1,0.7,0.2,1.1c0.1,0.3,0.3,0.6,0.6,0.9
		c0.5,0.5,1.2,0.8,2,0.8s1.4-0.3,2-0.8c0.3-0.3,0.5-0.6,0.6-0.9c0.1-0.3,0.2-0.7,0.2-1.1V47.9c0-1.3,0.2-2.5,0.6-3.7
		c0.4-1.1,1-2,1.7-2.9c0.7-0.8,1.5-1.4,2.4-1.9c0.8-0.4,1.7-0.6,2.6-0.6c0.7,0,1.4,0.1,2,0.4c0.5,0.2,1.1,0.4,1.6,0.4
		c0.6,0,1.2-0.2,1.7-0.7c0.5-0.4,0.8-1.2,0.8-2.1c0-0.4-0.1-0.7-0.3-1.1c-0.2-0.3-0.4-0.6-0.8-0.8c-0.7-0.5-1.6-0.8-2.5-0.8
		c-2.3,0-4.5,0.7-6.3,2.1c-0.9,0.7-1.6,1.5-2.3,2.4c-0.3,0.4-0.6,0.9-0.8,1.4l-0.3,0.6v-3c0-0.4-0.1-0.7-0.2-1.1
		C487.4,36.1,487.2,35.8,486.9,35.5z"/>
	<path class="st1" d="M354.5,27.1C354.5,27.1,354.5,27,354.5,27.1c0-0.1,0-0.2,0-0.3l0-0.1c0-0.1,0-0.2-0.1-0.2l0-0.1
		c0-0.1-0.1-0.2-0.1-0.2l0,0c0-0.1-0.1-0.2-0.2-0.3l0,0c0-0.1-0.1-0.1-0.2-0.2l-0.1-0.1c0-0.1-0.1-0.1-0.2-0.1l-0.1-0.1
		c-0.1-0.1-0.2-0.1-0.2-0.2c-0.1-0.1-0.2-0.1-0.2-0.1l-0.1,0c-0.1,0-0.1-0.1-0.2-0.1l-0.1,0l-0.2-0.1l-0.1,0l-0.1,0l-0.2,0h-0.1
		c-0.1,0-0.2,0-0.3,0c-0.1,0-0.2,0-0.3,0l-0.1,0l-0.1,0l-0.2,0l-0.1,0l-0.1,0l-0.1,0l-0.1,0l-0.1,0.1l-0.1,0c-0.1,0-0.1,0.1-0.2,0.1
		l0,0c-0.1,0-0.1,0.1-0.2,0.1h0c-0.1,0.1-0.1,0.1-0.2,0.2c-0.1,0.1-0.2,0.3-0.3,0.4l-13.8,19.9l-13.8-19.9l0-0.1
		c0-0.1-0.1-0.1-0.1-0.1c0,0-0.1-0.1-0.1-0.1l0,0c0,0-0.1-0.1-0.2-0.1l0,0c-0.1,0-0.1-0.1-0.2-0.1l-0.1,0l-0.1-0.1l-0.1-0.1L321,25
		l-0.1-0.1l-0.1,0l-0.1-0.1l-0.1,0l-0.2,0l-0.1,0l-0.1,0c-0.2,0-0.4,0-0.5,0l-0.1,0l-0.2,0l-0.2,0l-0.1,0c-0.1,0-0.1,0-0.2,0.1h0
		c-0.3,0.1-0.5,0.3-0.7,0.4l-0.1,0c-0.1,0.1-0.1,0.1-0.2,0.2l-0.1,0.1c-0.1,0.1-0.1,0.1-0.2,0.2l0,0c-0.1,0.1-0.1,0.2-0.2,0.3l0,0
		c0,0.1-0.1,0.2-0.1,0.2l0,0.1c0,0.1,0,0.1-0.1,0.2l0,0.1c0,0.1,0,0.2,0,0.2c0,0,0,0,0,0.1c0,0.1,0,0.2,0,0.3v34.9
		c0,0.7,0.3,1.4,0.8,1.9c0.5,0.5,1.2,0.8,1.9,0.8c0.7,0,1.4-0.3,1.9-0.8c0.5-0.5,0.8-1.2,0.8-1.9V35.5l10,14.5l1,1.5
		c0.2,0.4,0.6,0.7,1,0.9c0.4,0.2,0.8,0.3,1.3,0.3s0.9-0.1,1.3-0.3c0.4-0.2,0.7-0.5,1-0.9l1-1.5l10-14.5v26.8c0,0.7,0.3,1.4,0.8,1.9
		c0.5,0.5,1.2,0.8,1.9,0.8c0.7,0,1.4-0.3,1.9-0.8c0.5-0.5,0.8-1.2,0.8-1.9V27.4C354.6,27.3,354.5,27.2,354.5,27.1z"/>
	<path class="st1" d="M395.6,31.1c1.8,0,3.3-1.5,3.3-3.3c0-1.8-1.5-3.3-3.3-3.3c-1.8,0-3.3,1.5-3.3,3.3
		C392.3,29.7,393.8,31.1,395.6,31.1z"/>
	<path class="st1" d="M193,27.1C193,27.1,193,27,193,27.1c0-0.1,0-0.2,0-0.3l0-0.1c0-0.1,0-0.2-0.1-0.2l0-0.1c0-0.1-0.1-0.2-0.1-0.2
		l0,0c0-0.1-0.1-0.2-0.2-0.3l0,0c0-0.1-0.1-0.1-0.2-0.2l-0.1-0.1c0-0.1-0.1-0.1-0.2-0.1l-0.1-0.1c-0.1-0.1-0.2-0.1-0.2-0.2
		c-0.1-0.1-0.2-0.1-0.2-0.1l-0.1,0c-0.1,0-0.1-0.1-0.2-0.1l-0.1,0l-0.2-0.1l-0.1,0l-0.1,0l-0.2,0h-0.1c-0.1,0-0.2,0-0.3,0
		c-0.1,0-0.2,0-0.3,0l-0.1,0l-0.1,0l-0.2,0l-0.1,0l-0.1,0l-0.1,0l-0.1,0l-0.1,0.1l-0.1,0c-0.1,0-0.1,0.1-0.2,0.1l0,0
		c-0.1,0-0.1,0.1-0.2,0.1h0c-0.1,0.1-0.1,0.1-0.2,0.2c-0.1,0.1-0.2,0.3-0.3,0.4l-13.8,20l-13.8-19.9l0-0.1c0-0.1-0.1-0.1-0.1-0.1
		c0,0-0.1-0.1-0.1-0.1l0,0c0,0-0.1-0.1-0.2-0.1l0,0c-0.1,0-0.1-0.1-0.2-0.1l0,0l-0.1-0.1l-0.1-0.1l-0.1-0.1l-0.1-0.1l-0.1,0
		l-0.1-0.1l-0.1,0l-0.2,0l-0.1,0l-0.1,0c-0.2,0-0.4,0-0.5,0l-0.1,0l-0.2,0l-0.2,0l-0.1,0c-0.1,0-0.1,0-0.2,0.1h0
		c-0.3,0.1-0.5,0.3-0.7,0.4l-0.1,0c-0.1,0.1-0.1,0.1-0.2,0.2l-0.1,0.1c-0.1,0.1-0.1,0.1-0.2,0.2l0,0c-0.1,0.1-0.1,0.2-0.2,0.3l0,0
		c0,0.1-0.1,0.2-0.1,0.2l0,0.1c0,0.1,0,0.1-0.1,0.2l0,0.1c0,0.1,0,0.2,0,0.2c0,0,0,0,0,0.1c0,0.1,0,0.2,0,0.3v34.9
		c0,0.7,0.3,1.4,0.8,1.9c0.5,0.5,1.2,0.8,1.9,0.8c0.7,0,1.4-0.3,1.9-0.8s0.8-1.2,0.8-1.9V35.5l10,14.5l1,1.5c0.2,0.4,0.6,0.7,1,0.9
		c0.4,0.2,0.8,0.3,1.3,0.3s0.9-0.1,1.3-0.3s0.7-0.5,1-0.9l1-1.5l10-14.5v26.8c0,0.7,0.3,1.4,0.8,1.9s1.2,0.8,1.9,0.8
		c0.7,0,1.4-0.3,1.9-0.8c0.5-0.5,0.8-1.2,0.8-1.9V27.4C193.1,27.3,193.1,27.2,193,27.1z"/>
</g>
</svg>
