<?xml version="1.0" standalone="no"?>
<!DOCTYPE svg PUBLIC "-//W3C//DTD SVG 20010904//EN"
 "http://www.w3.org/TR/2001/REC-SVG-20010904/DTD/svg10.dtd">
<svg version="1.0" xmlns="http://www.w3.org/2000/svg"
 width="512.000000pt" height="512.000000pt" viewBox="0 0 512.000000 512.000000"
 preserveAspectRatio="xMidYMid meet">

<g transform="translate(0.000000,512.000000) scale(0.100000,-0.100000)"
fill="#ffffff" stroke="none">
<path d="M2495 4021 c-42 -19 -95 -72 -95 -96 0 -7 -14 -25 -31 -39 -30 -26
-32 -26 -203 -26 -167 0 -173 -1 -194 -23 -19 -21 -22 -35 -22 -118 0 -61 4
-99 12 -107 16 -16 1179 -17 1209 -2 17 9 19 22 19 106 0 87 -2 97 -25 119
-24 25 -27 25 -189 25 -91 0 -176 4 -191 10 -14 5 -34 24 -43 42 -61 113 -151
153 -247 109z m138 -83 c24 -25 28 -37 23 -62 -17 -91 -144 -103 -174 -17 -8
23 -7 37 6 62 33 66 94 73 145 17z"/>
<path d="M1612 3747 l-22 -23 0 -1263 0 -1262 25 -24 24 -25 928 0 c982 1 946
-1 971 47 9 16 12 338 12 1263 0 1321 1 1286 -45 1304 -30 11 -200 7 -213 -6
-8 -8 -12 -49 -12 -120 0 -96 -2 -108 -19 -118 -13 -6 -250 -10 -699 -10 -640
0 -680 1 -695 18 -12 14 -17 43 -19 127 l-3 110 -105 3 c-100 2 -107 1 -128
-21z m1643 -612 c33 -32 33 -84 1 -122 l-24 -28 -649 -3 c-475 -2 -655 1 -676
9 -30 13 -57 55 -57 89 0 12 13 35 29 51 l29 29 662 0 661 0 24 -25z m0 -440
c27 -26 33 -72 14 -107 -25 -47 -37 -48 -705 -48 -682 0 -677 0 -703 56 -17
38 -14 59 15 93 l26 31 664 0 665 0 24 -25z m-30 -419 c59 -25 75 -97 30 -141
l-24 -25 -665 0 -664 0 -26 31 c-41 48 -29 105 28 133 45 22 1268 24 1321 2z
m31 -459 c32 -38 32 -90 -1 -122 l-24 -25 -661 0 -662 0 -29 29 c-32 32 -36
55 -17 97 25 54 19 54 721 51 l649 -2 24 -28z"/>
<path d="M74 3120 c13 -81 68 -155 146 -196 31 -17 68 -20 320 -24 305 -6 319
-8 412 -63 25 -14 62 -45 84 -69 l38 -43 -367 -3 c-367 -2 -367 -2 -367 -23 0
-51 27 -106 75 -156 77 -79 100 -83 442 -83 l283 0 0 -90 0 -90 -265 0 -265 0
0 -32 c1 -83 87 -185 181 -212 37 -11 95 -16 201 -16 l148 0 0 -58 c0 -136 70
-243 181 -276 29 -9 59 -16 66 -16 11 0 13 88 13 473 0 426 -2 479 -18 538
-55 197 -226 373 -432 444 l-85 30 -399 3 -399 3 7 -41z"/>
<path d="M4284 3149 c-241 -40 -449 -220 -525 -454 -23 -68 -23 -82 -27 -548
l-3 -479 43 7 c88 15 165 74 200 153 11 24 22 77 25 117 l6 73 166 4 c183 4
210 11 276 69 42 37 85 118 85 161 l0 28 -267 2 -268 3 -3 87 -3 87 308 3
c283 3 311 5 348 23 77 38 134 114 149 198 l7 37 -366 0 c-201 0 -365 3 -365
8 0 12 50 64 92 95 20 16 68 39 105 53 65 22 80 24 324 24 167 0 268 4 290 12
92 31 160 109 178 201 l8 47 -366 -1 c-201 -1 -389 -5 -417 -10z"/>
</g>
</svg>
